<svg width="64" height="64" viewBox="0 0 64 64" fill="none" xmlns="http://www.w3.org/2000/svg">
  <!-- Main cloud -->
  <path d="M16 36 C12 36 8 32 8 28 C8 24 12 20 16 20 C18 16 22 14 26 14 C32 14 36 18 36 24 C40 24 44 28 44 32 C44 36 40 40 36 40 L16 40 C12 40 8 36 8 32" fill="#E5F3FF" stroke="#3B82F6" stroke-width="2" stroke-linejoin="round"/>
  
  <!-- Secondary cloud -->
  <path d="M32 28 C30 28 28 26 28 24 C28 22 30 20 32 20 C33 18 35 16 37 16 C40 16 42 18 42 21 C44 21 46 23 46 25 C46 27 44 29 42 29 L32 29 C30 29 28 27 28 25" fill="#DBEAFE" stroke="#60A5FA" stroke-width="1.5" stroke-linejoin="round"/>
  
  <!-- Data flow lines -->
  <path d="M20 44 L20 52" stroke="#3B82F6" stroke-width="2" stroke-linecap="round"/>
  <path d="M32 44 L32 52" stroke="#3B82F6" stroke-width="2" stroke-linecap="round"/>
  <path d="M44 44 L44 52" stroke="#3B82F6" stroke-width="2" stroke-linecap="round"/>
  
  <!-- Server/database icons -->
  <rect x="16" y="52" width="8" height="4" rx="1" fill="#1F2937" stroke="#374151" stroke-width="1"/>
  <rect x="28" y="52" width="8" height="4" rx="1" fill="#1F2937" stroke="#374151" stroke-width="1"/>
  <rect x="40" y="52" width="8" height="4" rx="1" fill="#1F2937" stroke="#374151" stroke-width="1"/>
  
  <!-- Server indicators -->
  <circle cx="18" cy="54" r="0.5" fill="#10B981"/>
  <circle cx="30" cy="54" r="0.5" fill="#10B981"/>
  <circle cx="42" cy="54" r="0.5" fill="#10B981"/>
  
  <!-- Upload/download arrows -->
  <path d="M24 46 L26 44 L28 46" stroke="#10B981" stroke-width="1.5" fill="none" stroke-linecap="round" stroke-linejoin="round"/>
  <path d="M36 46 L38 48 L40 46" stroke="#EF4444" stroke-width="1.5" fill="none" stroke-linecap="round" stroke-linejoin="round"/>
  
  <!-- Network connections -->
  <path d="M24 52 L28 52" stroke="#6B7280" stroke-width="1" stroke-dasharray="2,2"/>
  <path d="36 52 L40 52" stroke="#6B7280" stroke-width="1" stroke-dasharray="2,2"/>
</svg>